<svg width="700" height="500" xmlns="http://www.w3.org/2000/svg" xmlns:xlink="http://www.w3.org/1999/xlink" version="1.1" baseProfile="full" viewBox="0 0 700 500">
<rect width="700" height="500" x="0" y="0" fill="#ffffff"></rect>
<path d="M0 0l700 0l0 500l-700 0Z" fill="transparent" stroke="#999999" class="zr0-cls-0"></path>
<path d="M66.5 385L66.5 45" fill="transparent" stroke="black" stroke-linecap="round" class="zr0-cls-1"></path>
<text dominant-baseline="central" text-anchor="middle" style="font-size:15px;font-family:sans-serif;font-weight:bold;" y="-7.5" transform="matrix(0,-1,1,0,25.1,215)" fill="black">Häufigkeit</text>
<path d="M66.1 385.5L650 385.5" fill="transparent" stroke="black" stroke-linecap="round" class="zr0-cls-1"></path>
<text dominant-baseline="central" text-anchor="middle" style="font-size:15px;font-family:sans-serif;font-weight:bold;" xml:space="preserve" y="7.5" transform="translate(358.05 418)" fill="black">Ausführungszeit in ms</text>
<text dominant-baseline="central" text-anchor="end" style="font-size:15px;font-family:sans-serif;" transform="translate(59.1 385)" fill="black">0</text>
<text dominant-baseline="central" text-anchor="end" style="font-size:15px;font-family:sans-serif;" transform="translate(59.1 328.3333)" fill="black">10</text>
<text dominant-baseline="central" text-anchor="end" style="font-size:15px;font-family:sans-serif;" transform="translate(59.1 271.6667)" fill="black">20</text>
<text dominant-baseline="central" text-anchor="end" style="font-size:15px;font-family:sans-serif;" transform="translate(59.1 215)" fill="black">30</text>
<text dominant-baseline="central" text-anchor="end" style="font-size:15px;font-family:sans-serif;" transform="translate(59.1 158.3333)" fill="black">40</text>
<text dominant-baseline="central" text-anchor="end" style="font-size:15px;font-family:sans-serif;" transform="translate(59.1 101.6667)" fill="black">50</text>
<text dominant-baseline="central" text-anchor="end" style="font-size:15px;font-family:sans-serif;" transform="translate(59.1 45)" fill="black">60</text>
<text dominant-baseline="central" text-anchor="middle" style="font-size:15px;font-family:sans-serif;" y="7.5" transform="translate(78.7935 393)" fill="black">49</text>
<text dominant-baseline="central" text-anchor="middle" style="font-size:15px;font-family:sans-serif;" y="7.5" transform="translate(104.1804 393)" fill="black">50</text>
<text dominant-baseline="central" text-anchor="middle" style="font-size:15px;font-family:sans-serif;" y="7.5" transform="translate(129.5674 393)" fill="black">51</text>
<text dominant-baseline="central" text-anchor="middle" style="font-size:15px;font-family:sans-serif;" y="7.5" transform="translate(154.9543 393)" fill="black">52</text>
<text dominant-baseline="central" text-anchor="middle" style="font-size:15px;font-family:sans-serif;" y="7.5" transform="translate(180.3413 393)" fill="black">53</text>
<text dominant-baseline="central" text-anchor="middle" style="font-size:15px;font-family:sans-serif;" y="7.5" transform="translate(205.7283 393)" fill="black">54</text>
<text dominant-baseline="central" text-anchor="middle" style="font-size:15px;font-family:sans-serif;" y="7.5" transform="translate(231.1152 393)" fill="black">55</text>
<text dominant-baseline="central" text-anchor="middle" style="font-size:15px;font-family:sans-serif;" y="7.5" transform="translate(256.5022 393)" fill="black">56</text>
<text dominant-baseline="central" text-anchor="middle" style="font-size:15px;font-family:sans-serif;" y="7.5" transform="translate(281.8891 393)" fill="black">57</text>
<text dominant-baseline="central" text-anchor="middle" style="font-size:15px;font-family:sans-serif;" y="7.5" transform="translate(307.2761 393)" fill="black">58</text>
<text dominant-baseline="central" text-anchor="middle" style="font-size:15px;font-family:sans-serif;" y="7.5" transform="translate(332.663 393)" fill="black">59</text>
<text dominant-baseline="central" text-anchor="middle" style="font-size:15px;font-family:sans-serif;" y="7.5" transform="translate(358.05 393)" fill="black">60</text>
<text dominant-baseline="central" text-anchor="middle" style="font-size:15px;font-family:sans-serif;" y="7.5" transform="translate(383.437 393)" fill="black">61</text>
<text dominant-baseline="central" text-anchor="middle" style="font-size:15px;font-family:sans-serif;" y="7.5" transform="translate(408.8239 393)" fill="black">62</text>
<text dominant-baseline="central" text-anchor="middle" style="font-size:15px;font-family:sans-serif;" y="7.5" transform="translate(434.2109 393)" fill="black">63</text>
<text dominant-baseline="central" text-anchor="middle" style="font-size:15px;font-family:sans-serif;" y="7.5" transform="translate(459.5978 393)" fill="black">64</text>
<text dominant-baseline="central" text-anchor="middle" style="font-size:15px;font-family:sans-serif;" y="7.5" transform="translate(484.9848 393)" fill="black">65</text>
<text dominant-baseline="central" text-anchor="middle" style="font-size:15px;font-family:sans-serif;" y="7.5" transform="translate(510.3717 393)" fill="black">66</text>
<text dominant-baseline="central" text-anchor="middle" style="font-size:15px;font-family:sans-serif;" y="7.5" transform="translate(535.7587 393)" fill="black">67</text>
<text dominant-baseline="central" text-anchor="middle" style="font-size:15px;font-family:sans-serif;" y="7.5" transform="translate(561.1457 393)" fill="black">68</text>
<text dominant-baseline="central" text-anchor="middle" style="font-size:15px;font-family:sans-serif;" y="7.5" transform="translate(586.5326 393)" fill="black">69</text>
<text dominant-baseline="central" text-anchor="middle" style="font-size:15px;font-family:sans-serif;" y="7.5" transform="translate(611.9196 393)" fill="black">70</text>
<text dominant-baseline="central" text-anchor="middle" style="font-size:15px;font-family:sans-serif;" y="7.5" transform="translate(637.3065 393)" fill="black">71</text>
<path d="M323.3968 385l8.4239 0l0 -11.3333l-8.4239 0Z" fill="url(#zr0-g0)" class="zr0-cls-2"></path>
<path d="M348.7838 385l8.4239 0l0 -192.6667l-8.4239 0Z" fill="url(#zr0-g0)" class="zr0-cls-2"></path>
<path d="M374.1707 385l8.4239 0l0 -198.3333l-8.4239 0Z" fill="url(#zr0-g0)" class="zr0-cls-2"></path>
<path d="M399.5577 385l8.4239 0l0 -62.3333l-8.4239 0Z" fill="url(#zr0-g0)" class="zr0-cls-2"></path>
<path d="M424.9446 385l8.4239 0l0 -28.3333l-8.4239 0Z" fill="url(#zr0-g0)" class="zr0-cls-2"></path>
<path d="M450.3316 385l8.4239 0l0 -28.3333l-8.4239 0Z" fill="url(#zr0-g0)" class="zr0-cls-2"></path>
<path d="M475.7185 385l8.4239 0l0 -11.3333l-8.4239 0Z" fill="url(#zr0-g0)" class="zr0-cls-2"></path>
<path d="M501.1055 385l8.4239 0l0 -5.6667l-8.4239 0Z" fill="url(#zr0-g0)" class="zr0-cls-2"></path>
<path d="M526.4925 385l8.4239 0l0 -22.6667l-8.4239 0Z" fill="url(#zr0-g0)" class="zr0-cls-2"></path>
<path d="M628.0403 385l8.4239 0l0 -5.6667l-8.4239 0Z" fill="url(#zr0-g0)" class="zr0-cls-2"></path>
<path d="M79.6359 385l8.4239 0l0 -158.6667l-8.4239 0Z" fill="url(#zr0-g1)" class="zr0-cls-2"></path>
<path d="M105.0228 385l8.4239 0l0 -311.6667l-8.4239 0Z" fill="url(#zr0-g1)" class="zr0-cls-2"></path>
<path d="M130.4098 385l8.4239 0l0 -68l-8.4239 0Z" fill="url(#zr0-g1)" class="zr0-cls-2"></path>
<path d="M181.1837 385l8.4239 0l0 -34l-8.4239 0Z" fill="url(#zr0-g1)" class="zr0-cls-2"></path>
<path d="M206.5706 385l8.4239 0l0 -5.6667l-8.4239 0Z" fill="url(#zr0-g1)" class="zr0-cls-2"></path>
<path d="M231.9576 385l8.4239 0l0 -17l-8.4239 0Z" fill="url(#zr0-g1)" class="zr0-cls-2"></path>
<path d="M257.3446 385l8.4239 0l0 -5.6667l-8.4239 0Z" fill="url(#zr0-g1)" class="zr0-cls-2"></path>
<path d="M308.1185 385l8.4239 0l0 -11.3333l-8.4239 0Z" fill="url(#zr0-g1)" class="zr0-cls-2"></path>
<text dominant-baseline="central" text-anchor="middle" style="font-size:14px;font-family:sans-serif;" y="-7" transform="translate(327.6087 368.6667)" fill="black">2</text>
<text dominant-baseline="central" text-anchor="middle" style="font-size:14px;font-family:sans-serif;" y="-7" transform="translate(352.9957 187.3333)" fill="black">34</text>
<text dominant-baseline="central" text-anchor="middle" style="font-size:14px;font-family:sans-serif;" y="-7" transform="translate(378.3826 181.6667)" fill="black">35</text>
<text dominant-baseline="central" text-anchor="middle" style="font-size:14px;font-family:sans-serif;" y="-7" transform="translate(403.7696 317.6667)" fill="black">11</text>
<text dominant-baseline="central" text-anchor="middle" style="font-size:14px;font-family:sans-serif;" y="-7" transform="translate(429.1566 351.6667)" fill="black">5</text>
<text dominant-baseline="central" text-anchor="middle" style="font-size:14px;font-family:sans-serif;" y="-7" transform="translate(454.5435 351.6667)" fill="black">5</text>
<text dominant-baseline="central" text-anchor="middle" style="font-size:14px;font-family:sans-serif;" y="-7" transform="translate(479.9305 368.6667)" fill="black">2</text>
<text dominant-baseline="central" text-anchor="middle" style="font-size:14px;font-family:sans-serif;" y="-7" transform="translate(505.3174 374.3333)" fill="black">1</text>
<text dominant-baseline="central" text-anchor="middle" style="font-size:14px;font-family:sans-serif;" y="-7" transform="translate(530.7044 357.3333)" fill="black">4</text>
<text dominant-baseline="central" text-anchor="middle" style="font-size:14px;font-family:sans-serif;" y="-7" transform="translate(632.2522 374.3333)" fill="black">1</text>
<text dominant-baseline="central" text-anchor="middle" style="font-size:14px;font-family:sans-serif;" y="-7" transform="translate(83.8478 221.3333)" fill="black">28</text>
<text dominant-baseline="central" text-anchor="middle" style="font-size:14px;font-family:sans-serif;" y="-7" transform="translate(109.2347 68.3333)" fill="black">55</text>
<text dominant-baseline="central" text-anchor="middle" style="font-size:14px;font-family:sans-serif;" y="-7" transform="translate(134.6217 312)" fill="black">12</text>
<text dominant-baseline="central" text-anchor="middle" style="font-size:14px;font-family:sans-serif;" y="-7" transform="translate(185.3956 346)" fill="black">6</text>
<text dominant-baseline="central" text-anchor="middle" style="font-size:14px;font-family:sans-serif;" y="-7" transform="translate(210.7826 374.3333)" fill="black">1</text>
<text dominant-baseline="central" text-anchor="middle" style="font-size:14px;font-family:sans-serif;" y="-7" transform="translate(236.1695 363)" fill="black">3</text>
<text dominant-baseline="central" text-anchor="middle" style="font-size:14px;font-family:sans-serif;" y="-7" transform="translate(261.5565 374.3333)" fill="black">1</text>
<text dominant-baseline="central" text-anchor="middle" style="font-size:14px;font-family:sans-serif;" y="-7" transform="translate(312.3304 368.6667)" fill="black">2</text>
<path d="M-5 -5l236.5667 0l0 26l-236.5667 0Z" transform="translate(86 473)" fill="rgb(0,0,0)" fill-opacity="0" stroke="#ccc" stroke-width="0" class="zr0-cls-1"></path>
<path d="M3.5 0L21.5 0A3.5 3.5 0 0 1 25 3.5L25 10.5A3.5 3.5 0 0 1 21.5 14L3.5 14A3.5 3.5 0 0 1 0 10.5L0 3.5A3.5 3.5 0 0 1 3.5 0" transform="translate(86 474)" fill="url(#zr0-g0)" class="zr0-cls-1"></path>
<text dominant-baseline="central" text-anchor="start" style="font-size:16px;font-family:sans-serif;" x="34" y="7" transform="translate(86 474)" fill="black">SchleifeA</text>
<path d="M0 -1l108.2667 0l0 16l-108.2667 0Z" transform="translate(86 474)" fill="transparent" class="zr0-cls-1"></path>
<path d="M3.5 0L21.5 0A3.5 3.5 0 0 1 25 3.5L25 10.5A3.5 3.5 0 0 1 21.5 14L3.5 14A3.5 3.5 0 0 1 0 10.5L0 3.5A3.5 3.5 0 0 1 3.5 0" transform="translate(204.2667 474)" fill="url(#zr0-g1)" class="zr0-cls-1"></path>
<text dominant-baseline="central" text-anchor="start" style="font-size:16px;font-family:sans-serif;" x="34" y="7" transform="translate(204.2667 474)" fill="black">SchleifeB</text>
<path d="M0 -1l108.3 0l0 16l-108.3 0Z" transform="translate(204.2667 474)" fill="transparent" class="zr0-cls-1"></path>
<path d="M-5 -5l10 0l0 10l-10 0Z" transform="translate(350 8)" fill="rgb(0,0,0)" fill-opacity="0" stroke="#ccc" stroke-width="0" class="zr0-cls-1"></path>
<path d="M-5 -5l10 0l0 10l-10 0Z" transform="translate(690 481)" fill="rgb(0,0,0)" fill-opacity="0" stroke="#ccc" stroke-width="0" class="zr0-cls-1"></path>
<defs >
<linearGradient gradientUnits="objectBoundingBox" x1="0" y1="0" x2="0" y2="1" id="zr0-g0">
<stop offset="0%" stop-color="rgb(81,124,239)"></stop>
<stop offset="100%" stop-color="rgb(56,86,167)"></stop>
</linearGradient>
<linearGradient gradientUnits="objectBoundingBox" x1="0" y1="0" x2="0" y2="1" id="zr0-g1">
<stop offset="0%" stop-color="rgb(255,150,10)"></stop>
<stop offset="100%" stop-color="rgb(178,105,7)"></stop>
</linearGradient>
</defs>
<style ><![CDATA[
.zr0-cls-0:hover {
cursor:pointer;
}
.zr0-cls-1:hover {
pointer-events:none;
}
.zr0-cls-2:hover {
cursor:pointer;
fill:inherit;
}

]]>

</style>
</svg>