<svg width="700" height="500" xmlns="http://www.w3.org/2000/svg" xmlns:xlink="http://www.w3.org/1999/xlink" version="1.1" baseProfile="full" viewBox="0 0 700 500">
<rect width="700" height="500" x="0" y="0" fill="#ffffff"></rect>
<path d="M0 0l700 0l0 500l-700 0Z" fill="transparent" stroke="#999999" class="zr0-cls-0"></path>
<path d="M66.5 385L66.5 45" fill="transparent" stroke="black" stroke-linecap="round" class="zr0-cls-1"></path>
<text dominant-baseline="central" text-anchor="middle" style="font-size:15px;font-family:sans-serif;font-weight:bold;" y="-7.5" transform="matrix(0,-1,1,0,25.1,215)" fill="black">Häufigkeit</text>
<path d="M66.1 385.5L650 385.5" fill="transparent" stroke="black" stroke-linecap="round" class="zr0-cls-1"></path>
<text dominant-baseline="central" text-anchor="middle" style="font-size:15px;font-family:sans-serif;font-weight:bold;" xml:space="preserve" y="7.5" transform="translate(358.05 418)" fill="black">Ausführungszeit in ms</text>
<text dominant-baseline="central" text-anchor="end" style="font-size:15px;font-family:sans-serif;" transform="translate(59.1 385)" fill="black">0</text>
<text dominant-baseline="central" text-anchor="end" style="font-size:15px;font-family:sans-serif;" transform="translate(59.1 317)" fill="black">10</text>
<text dominant-baseline="central" text-anchor="end" style="font-size:15px;font-family:sans-serif;" transform="translate(59.1 249)" fill="black">20</text>
<text dominant-baseline="central" text-anchor="end" style="font-size:15px;font-family:sans-serif;" transform="translate(59.1 181)" fill="black">30</text>
<text dominant-baseline="central" text-anchor="end" style="font-size:15px;font-family:sans-serif;" transform="translate(59.1 113)" fill="black">40</text>
<text dominant-baseline="central" text-anchor="end" style="font-size:15px;font-family:sans-serif;" transform="translate(59.1 45)" fill="black">50</text>
<text dominant-baseline="central" text-anchor="middle" style="font-size:15px;font-family:sans-serif;" y="7.5" transform="translate(80.0024 393)" fill="black">66</text>
<text dominant-baseline="central" text-anchor="middle" style="font-size:15px;font-family:sans-serif;" y="7.5" transform="translate(135.6119 393)" fill="black">68</text>
<text dominant-baseline="central" text-anchor="middle" style="font-size:15px;font-family:sans-serif;" y="7.5" transform="translate(191.2214 393)" fill="black">70</text>
<text dominant-baseline="central" text-anchor="middle" style="font-size:15px;font-family:sans-serif;" y="7.5" transform="translate(246.831 393)" fill="black">72</text>
<text dominant-baseline="central" text-anchor="middle" style="font-size:15px;font-family:sans-serif;" y="7.5" transform="translate(302.4405 393)" fill="black">170</text>
<text dominant-baseline="central" text-anchor="middle" style="font-size:15px;font-family:sans-serif;" y="7.5" transform="translate(358.05 393)" fill="black">172</text>
<text dominant-baseline="central" text-anchor="middle" style="font-size:15px;font-family:sans-serif;" y="7.5" transform="translate(413.6595 393)" fill="black">174</text>
<text dominant-baseline="central" text-anchor="middle" style="font-size:15px;font-family:sans-serif;" y="7.5" transform="translate(469.269 393)" fill="black">177</text>
<text dominant-baseline="central" text-anchor="middle" style="font-size:15px;font-family:sans-serif;" y="7.5" transform="translate(524.8786 393)" fill="black">179</text>
<text dominant-baseline="central" text-anchor="middle" style="font-size:15px;font-family:sans-serif;" y="7.5" transform="translate(580.4881 393)" fill="black">182</text>
<text dominant-baseline="central" text-anchor="middle" style="font-size:15px;font-family:sans-serif;" y="7.5" transform="translate(636.0976 393)" fill="black">223</text>
<path d="M69.8536 385l9.2261 0l0 -34l-9.2261 0Z" fill="url(#zr0-g0)" class="zr0-cls-2"></path>
<path d="M97.6584 385l9.2261 0l0 -333.2l-9.2261 0Z" fill="url(#zr0-g0)" class="zr0-cls-2"></path>
<path d="M125.4632 385l9.2261 0l0 -115.6l-9.2261 0Z" fill="url(#zr0-g0)" class="zr0-cls-2"></path>
<path d="M153.2679 385l9.2261 0l0 -47.6l-9.2261 0Z" fill="url(#zr0-g0)" class="zr0-cls-2"></path>
<path d="M181.0727 385l9.2261 0l0 -6.8l-9.2261 0Z" fill="url(#zr0-g0)" class="zr0-cls-2"></path>
<path d="M208.8775 385l9.2261 0l0 -6.8l-9.2261 0Z" fill="url(#zr0-g0)" class="zr0-cls-2"></path>
<path d="M236.6822 385l9.2261 0l0 -20.4l-9.2261 0Z" fill="url(#zr0-g0)" class="zr0-cls-2"></path>
<path d="M275.5583 385l9.2261 0l0 -34l-9.2261 0Z" fill="url(#zr0-g1)" class="zr0-cls-2"></path>
<path d="M303.3631 385l9.2261 0l0 -34l-9.2261 0Z" fill="url(#zr0-g1)" class="zr0-cls-2"></path>
<path d="M331.1679 385l9.2261 0l0 -40.8l-9.2261 0Z" fill="url(#zr0-g1)" class="zr0-cls-2"></path>
<path d="M358.9726 385l9.2261 0l0 -34l-9.2261 0Z" fill="url(#zr0-g1)" class="zr0-cls-2"></path>
<path d="M386.7774 385l9.2261 0l0 -47.6l-9.2261 0Z" fill="url(#zr0-g1)" class="zr0-cls-2"></path>
<path d="M414.5821 385l9.2261 0l0 -6.8l-9.2261 0Z" fill="url(#zr0-g1)" class="zr0-cls-2"></path>
<path d="M442.3869 385l9.2261 0l0 -34l-9.2261 0Z" fill="url(#zr0-g1)" class="zr0-cls-2"></path>
<path d="M470.1917 385l9.2261 0l0 -20.4l-9.2261 0Z" fill="url(#zr0-g1)" class="zr0-cls-2"></path>
<path d="M497.9964 385l9.2261 0l0 -34l-9.2261 0Z" fill="url(#zr0-g1)" class="zr0-cls-2"></path>
<path d="M525.8012 385l9.2261 0l0 -20.4l-9.2261 0Z" fill="url(#zr0-g1)" class="zr0-cls-2"></path>
<path d="M553.6059 385l9.2261 0l0 -20.4l-9.2261 0Z" fill="url(#zr0-g1)" class="zr0-cls-2"></path>
<path d="M581.4107 385l9.2261 0l0 -6.8l-9.2261 0Z" fill="url(#zr0-g1)" class="zr0-cls-2"></path>
<path d="M609.2155 385l9.2261 0l0 -6.8l-9.2261 0Z" fill="url(#zr0-g1)" class="zr0-cls-2"></path>
<path d="M637.0202 385l9.2261 0l0 -6.8l-9.2261 0Z" fill="url(#zr0-g1)" class="zr0-cls-2"></path>
<text dominant-baseline="central" text-anchor="middle" style="font-size:14px;font-family:sans-serif;" y="-7" transform="translate(74.4667 346)" fill="black">5</text>
<text dominant-baseline="central" text-anchor="middle" style="font-size:14px;font-family:sans-serif;" y="-7" transform="translate(102.2715 46.8)" fill="black">49</text>
<text dominant-baseline="central" text-anchor="middle" style="font-size:14px;font-family:sans-serif;" y="-7" transform="translate(130.0762 264.4)" fill="black">17</text>
<text dominant-baseline="central" text-anchor="middle" style="font-size:14px;font-family:sans-serif;" y="-7" transform="translate(157.881 332.4)" fill="black">7</text>
<text dominant-baseline="central" text-anchor="middle" style="font-size:14px;font-family:sans-serif;" y="-7" transform="translate(185.6858 373.2)" fill="black">1</text>
<text dominant-baseline="central" text-anchor="middle" style="font-size:14px;font-family:sans-serif;" y="-7" transform="translate(213.4905 373.2)" fill="black">1</text>
<text dominant-baseline="central" text-anchor="middle" style="font-size:14px;font-family:sans-serif;" y="-7" transform="translate(241.2953 359.6)" fill="black">3</text>
<text dominant-baseline="central" text-anchor="middle" style="font-size:14px;font-family:sans-serif;" y="-7" transform="translate(280.1714 346)" fill="black">5</text>
<text dominant-baseline="central" text-anchor="middle" style="font-size:14px;font-family:sans-serif;" y="-7" transform="translate(307.9762 346)" fill="black">5</text>
<text dominant-baseline="central" text-anchor="middle" style="font-size:14px;font-family:sans-serif;" y="-7" transform="translate(335.7809 339.2)" fill="black">6</text>
<text dominant-baseline="central" text-anchor="middle" style="font-size:14px;font-family:sans-serif;" y="-7" transform="translate(363.5857 346)" fill="black">5</text>
<text dominant-baseline="central" text-anchor="middle" style="font-size:14px;font-family:sans-serif;" y="-7" transform="translate(391.3904 332.4)" fill="black">7</text>
<text dominant-baseline="central" text-anchor="middle" style="font-size:14px;font-family:sans-serif;" y="-7" transform="translate(419.1952 373.2)" fill="black">1</text>
<text dominant-baseline="central" text-anchor="middle" style="font-size:14px;font-family:sans-serif;" y="-7" transform="translate(447 346)" fill="black">5</text>
<text dominant-baseline="central" text-anchor="middle" style="font-size:14px;font-family:sans-serif;" y="-7" transform="translate(474.8047 359.6)" fill="black">3</text>
<text dominant-baseline="central" text-anchor="middle" style="font-size:14px;font-family:sans-serif;" y="-7" transform="translate(502.6095 346)" fill="black">5</text>
<text dominant-baseline="central" text-anchor="middle" style="font-size:14px;font-family:sans-serif;" y="-7" transform="translate(530.4142 359.6)" fill="black">3</text>
<text dominant-baseline="central" text-anchor="middle" style="font-size:14px;font-family:sans-serif;" y="-7" transform="translate(558.219 359.6)" fill="black">3</text>
<text dominant-baseline="central" text-anchor="middle" style="font-size:14px;font-family:sans-serif;" y="-7" transform="translate(586.0238 373.2)" fill="black">1</text>
<text dominant-baseline="central" text-anchor="middle" style="font-size:14px;font-family:sans-serif;" y="-7" transform="translate(613.8285 373.2)" fill="black">1</text>
<text dominant-baseline="central" text-anchor="middle" style="font-size:14px;font-family:sans-serif;" y="-7" transform="translate(641.6333 373.2)" fill="black">1</text>
<path d="M-5 -5l236.5667 0l0 26l-236.5667 0Z" transform="translate(86 473)" fill="rgb(0,0,0)" fill-opacity="0" stroke="#ccc" stroke-width="0" class="zr0-cls-1"></path>
<path d="M3.5 0L21.5 0A3.5 3.5 0 0 1 25 3.5L25 10.5A3.5 3.5 0 0 1 21.5 14L3.5 14A3.5 3.5 0 0 1 0 10.5L0 3.5A3.5 3.5 0 0 1 3.5 0" transform="translate(86 474)" fill="url(#zr0-g0)" class="zr0-cls-1"></path>
<text dominant-baseline="central" text-anchor="start" style="font-size:16px;font-family:sans-serif;" x="34" y="7" transform="translate(86 474)" fill="black">SchleifeA</text>
<path d="M0 -1l108.2667 0l0 16l-108.2667 0Z" transform="translate(86 474)" fill="transparent" class="zr0-cls-1"></path>
<path d="M3.5 0L21.5 0A3.5 3.5 0 0 1 25 3.5L25 10.5A3.5 3.5 0 0 1 21.5 14L3.5 14A3.5 3.5 0 0 1 0 10.5L0 3.5A3.5 3.5 0 0 1 3.5 0" transform="translate(204.2667 474)" fill="url(#zr0-g1)" class="zr0-cls-1"></path>
<text dominant-baseline="central" text-anchor="start" style="font-size:16px;font-family:sans-serif;" x="34" y="7" transform="translate(204.2667 474)" fill="black">SchleifeB</text>
<path d="M0 -1l108.3 0l0 16l-108.3 0Z" transform="translate(204.2667 474)" fill="transparent" class="zr0-cls-1"></path>
<path d="M-5 -5l10 0l0 10l-10 0Z" transform="translate(350 8)" fill="rgb(0,0,0)" fill-opacity="0" stroke="#ccc" stroke-width="0" class="zr0-cls-1"></path>
<path d="M-5 -5l10 0l0 10l-10 0Z" transform="translate(690 481)" fill="rgb(0,0,0)" fill-opacity="0" stroke="#ccc" stroke-width="0" class="zr0-cls-1"></path>
<defs >
<linearGradient gradientUnits="objectBoundingBox" x1="0" y1="0" x2="0" y2="1" id="zr0-g0">
<stop offset="0%" stop-color="rgb(81,124,239)"></stop>
<stop offset="100%" stop-color="rgb(56,86,167)"></stop>
</linearGradient>
<linearGradient gradientUnits="objectBoundingBox" x1="0" y1="0" x2="0" y2="1" id="zr0-g1">
<stop offset="0%" stop-color="rgb(255,150,10)"></stop>
<stop offset="100%" stop-color="rgb(178,105,7)"></stop>
</linearGradient>
</defs>
<style ><![CDATA[
.zr0-cls-0:hover {
cursor:pointer;
}
.zr0-cls-1:hover {
pointer-events:none;
}
.zr0-cls-2:hover {
cursor:pointer;
fill:inherit;
}

]]>

</style>
</svg>